<svg width="200" height="200" viewBox="0 0 200 200" fill="none" xmlns="http://www.w3.org/2000/svg">
  <!-- Background circle with gradient -->
  <defs>
    <linearGradient id="bgGradient" x1="0%" y1="0%" x2="100%" y2="100%">
      <stop offset="0%" style="stop-color:#3B82F6;stop-opacity:1" />
      <stop offset="100%" style="stop-color:#1E40AF;stop-opacity:1" />
    </linearGradient>
  </defs>
  <circle cx="100" cy="100" r="100" fill="url(#bgGradient)"/>
  
  <!-- Face/head -->
  <circle cx="100" cy="75" r="35" fill="#8B4513" opacity="0.9"/>
  
  <!-- Glasses frame -->
  <circle cx="85" cy="70" r="12" fill="none" stroke="white" stroke-width="2"/>
  <circle cx="115" cy="70" r="12" fill="none" stroke="white" stroke-width="2"/>
  <line x1="97" y1="70" x2="103" y2="70" stroke="white" stroke-width="2"/>
  
  <!-- Eyes -->
  <circle cx="85" cy="70" r="3" fill="white"/>
  <circle cx="115" cy="70" r="3" fill="white"/>
  
  <!-- Body/shoulders -->
  <path d="M55 165 C55 140, 75 125, 100 125 C125 125, 145 140, 145 165 L145 200 L55 200 Z" fill="#2D2D2D"/>
  
  <!-- Jacket/collar -->
  <path d="M70 125 C80 120, 90 118, 100 118 C110 118, 120 120, 130 125 L130 140 C125 135, 115 133, 100 133 C85 133, 75 135, 70 140 Z" fill="#1A1A1A"/>
</svg>