<svg width="24" height="24" viewBox="0 0 24 24" fill="none" xmlns="http://www.w3.org/2000/svg">
  <!-- BBQ Grill Icon -->
  <!-- Grill grates -->
  <path d="M4 12h16M4 14h16M4 16h16" stroke="#FFFFFF" stroke-width="1.5" stroke-linecap="round"/>
  
  <!-- Grill body -->
  <path d="M6 10h12c1.1 0 2 .9 2 2v6c0 1.1-.9 2-2 2H6c-1.1 0-2-.9-2-2v-6c0-1.1.9-2 2-2z" stroke="#FFFFFF" stroke-width="1.5" fill="none"/>
  
  <!-- Grill legs -->
  <path d="M8 20v2M16 20v2" stroke="#FFFFFF" stroke-width="1.5" stroke-linecap="round"/>
  
  <!-- Grill handle -->
  <path d="M20 13h2" stroke="#FFFFFF" stroke-width="1.5" stroke-linecap="round"/>
  
  <!-- BBQ food/meat -->
  <ellipse cx="10" cy="8" rx="2" ry="1" fill="#FFFFFF"/>
  <ellipse cx="14" cy="6" rx="1.5" ry="0.8" fill="#FFFFFF"/>
  <ellipse cx="12" cy="9" rx="1" ry="0.6" fill="#FFFFFF"/>
  
  <!-- Smoke lines -->
  <path d="M9 4c0 .5.5 1 1 1s1-.5 1-1M11 2c0 .5.5 1 1 1s1-.5 1-1M13 4c0 .5.5 1 1 1s1-.5 1-1" stroke="#FFFFFF" stroke-width="1" stroke-linecap="round"/>
</svg>